<svg width="1032" height="150" viewBox="0 0 1032 150" fill="none" xmlns="http://www.w3.org/2000/svg">
<path d="M0 131.25V0H112.5V18.75H131.25V56.25H112.5V75H131.25V112.5H112.5V131.25H0ZM37.5 56.25H93.75V18.75H37.5V56.25ZM37.5 112.5H93.75V75H37.5V112.5ZM168.75 131.25V112.5H150V93.75H168.75V75H243.75V56.25H168.75V37.5H262.5V56.25H281.25V131.25H168.75ZM187.5 112.5H243.75V93.75H187.5V112.5ZM318.75 131.25V112.5H300V0H337.5V37.5H412.5V56.25H431.25V112.5H412.5V131.25H318.75ZM337.5 112.5H393.75V56.25H337.5V112.5ZM468.75 150V131.25H543.75V112.5H468.75V93.75H450V37.5H487.5V93.75H543.75V37.5H581.25V131.25H562.5V150H468.75ZM618.75 131.25V112.5H656.25V18.75H637.5V0H693.75V112.5H731.25V131.25H618.75ZM768.75 131.25V112.5H750V56.25H768.75V37.5H862.5V56.25H881.25V112.5H862.5V131.25H768.75ZM787.5 112.5H843.75V56.25H787.5V112.5ZM900 131.25V37.5H1012.5V56.25H1031.25V131.25H993.75V56.25H937.5V131.25H900Z" fill="black"/>
</svg>
