<svg width="682" height="682" xmlns="http://www.w3.org/2000/svg">

 <g>
  <title>background</title>
  <rect fill="none" id="canvas_background" height="402" width="582" y="-1" x="-1"/>
 </g>
 <g>
  <title>Layer 1</title>
  <g id="svg_1">
   <path id="svg_2" opacity="0.998" d="m317.5,-0.5c15.333,0 30.667,0 46,0c118.293,11.7004 208.793,67.7004 271.5,168c26.656,46.645 42.156,96.645 46.5,150c0,15.333 0,30.667 0,46c-11.7,118.293 -67.7,208.793 -168,271.5c-46.645,26.656 -96.645,42.156 -150,46.5c-15.333,0 -30.667,0 -46,0c-118.293,-11.7 -208.793,-67.7 -271.5,-168c-26.6558,-46.645 -42.15575,-96.645 -46.5,-150c0,-15.333 0,-30.667 0,-46c11.7004,-118.293 67.7004,-208.793 168,-271.5c46.645,-26.6558 96.645,-42.15575 150,-46.5z" fill="none"/>
  </g>
  <g id="svg_3">
   <path id="svg_4" d="m283.5,65.5c-10.672,-0.1665 -21.339,0.0002 -32,0.5c-5.51,1.89 -11.176,2.7233 -17,2.5c16.092,-5.1933 32.426,-6.1933 49,-3z" fill="#a60c2b"/>
  </g>
  <g id="svg_5">
   <path id="svg_6" d="m290.5,66.5c46.623,10.536 79.457,37.869 98.5,82c0.661,3.446 1.495,6.779 2.5,10c0.609,5.312 1.109,10.646 1.5,16c0.556,-2.095 1.056,-2.262 1.5,-0.5c-0.544,4.246 -1.377,8.413 -2.5,12.5c-4.955,-0.102 -10.122,-0.102 -15.5,0c-13.662,-1.607 -26.995,-4.273 -40,-8c9.28,1.314 18.613,2.647 28,4c1.333,-0.333 2.667,-0.667 4,-1c-10.24,-2.515 -20.574,-4.515 -31,-6c-0.333,-0.333 -0.667,-0.667 -1,-1c1.333,-0.333 2.667,-0.667 4,-1c3.977,0.982 7.977,1.982 12,3c0.667,-0.167 1.333,-0.333 2,-0.5c-1.473,-0.71 -2.14,-1.876 -2,-3.5c-5.369,-0.507 -10.702,-1.341 -16,-2.5c-2.442,-3.759 -5.276,-4.259 -8.5,-1.5c-2.135,-1.778 -4.635,-2.445 -7.5,-2c0.149,-1.052 -0.017,-2.052 -0.5,-3c-2.167,-0.833 -3.667,-2.333 -4.5,-4.5c-1.707,-0.195 -3.374,-0.195 -5,0c0.951,-0.718 1.117,-1.551 0.5,-2.5c-2.366,-2.008 -4.699,-4.008 -7,-6c-1.872,0.568 -3.705,1.235 -5.5,2c-0.333,-0.333 -0.667,-0.667 -1,-1c4.568,-1.44 4.401,-3.44 -0.5,-6c-0.483,-0.948 -0.649,-1.948 -0.5,-3c-2.667,0 -5.333,0 -8,0c0.149,-1.052 -0.017,-2.052 -0.5,-3c-2.167,-0.833 -3.667,-2.333 -4.5,-4.5c-0.948,-0.483 -1.948,-0.649 -3,-0.5c0.149,-1.052 -0.017,-2.052 -0.5,-3c-2.167,-0.833 -3.667,-2.333 -4.5,-4.5c-3.652,-0.499 -7.318,-0.665 -11,-0.5c0,-1 0,-2 0,-3c-1.762,0.143 -3.429,-0.191 -5,-1c-1.231,-1.151 -1.231,-2.317 0,-3.5c-0.948,-0.483 -1.948,-0.649 -3,-0.5c0.149,-1.052 -0.017,-2.052 -0.5,-3c-2.167,-0.833 -3.667,-2.333 -4.5,-4.5c-2.249,-0.863 -4.082,-0.363 -5.5,1.5c-1.487,-0.753 -1.654,-1.586 -0.5,-2.5c-1.525,-1.009 -3.192,-1.509 -5,-1.5c-0.155,-3.649 -1.822,-6.316 -5,-8c-4.337,-1.1695 -8.67,-2.3362 -13,-3.5c0.667,-0.6667 1.333,-1.3333 2,-2c-2.791,-1.3864 -5.291,-3.2198 -7.5,-5.5c-2.283,-3.9886 -1.45,-6.4886 2.5,-7.5c0.667,-1 1.333,-2 2,-3c3.333,-0.3333 6.667,-0.6667 10,-1c1.196,-0.6543 1.196,-1.1543 0,-1.5c-2.412,1.3177 -4.746,1.151 -7,-0.5c10.68,-0.9829 21.346,-2.1496 32,-3.5c5.353,0.674 10.686,1.3407 16,2c0,-1.3333 0,-2.6667 0,-4c9.415,-0.1563 18.749,-0.3229 28,-0.5c-3.718,-0.3726 -7.051,-1.5392 -10,-3.5z" fill="#db0028"/>
  </g>
  <g id="svg_7">
   <path id="svg_8" d="m234.5,68.5c-3.204,3.2683 -7.204,4.7683 -12,4.5c-4.965,1.8231 -8.799,4.3231 -11.5,7.5c-0.414,-0.4574 -0.914,-0.7907 -1.5,-1c-1.95,0.8721 -3.95,1.5388 -6,2c9.226,-6.774 19.559,-11.1073 31,-13z" fill="#c61830"/>
  </g>
  <g id="svg_9">
   <path id="svg_10" d="m186.5,93.5c7.046,1.5622 14.38,3.0622 22,4.5c2.774,0.6236 4.774,2.124 6,4.5c-10.519,-4.3239 -21.519,-6.1573 -33,-5.5c1.346,-1.6692 3.013,-2.8358 5,-3.5z" fill="#b61a2d"/>
  </g>
  <g id="svg_11">
   <path id="svg_12" d="m208.5,102.5c-3.542,-0.313 -6.875,0.021 -10,1c-3.147,0.237 -6.147,1.07 -9,2.5c-8.703,6.034 -15.203,13.867 -19.5,23.5c-0.667,1 -0.667,2 0,3c9.425,-17.799 24.258,-25.799 44.5,-24c3.175,0.929 6.509,1.762 10,2.5c2.839,1.92 5.839,3.587 9,5c-8.405,-2.732 -16.405,-1.732 -24,3c-7.876,5.18 -13.376,12.013 -16.5,20.5c11.682,-17.579 27.516,-22.746 47.5,-15.5c3.313,1.968 6.646,3.968 10,6c-9.668,-2.332 -17.835,0.168 -24.5,7.5c-1.009,1.525 -1.509,3.192 -1.5,5c6.6,-8.919 15.267,-11.419 26,-7.5c8.343,3.775 16.343,8.108 24,13c12.667,9.667 25.333,19.333 38,29c33.157,7.141 66.491,13.308 100,18.5c44.486,5.561 88.486,13.727 132,24.5c14.713,4.839 28.713,11.172 42,19c4.167,3.5 8.333,7 12.5,10.5c4.873,5.365 8.706,11.365 11.5,18c-1.624,0.14 -2.79,-0.527 -3.5,-2c-0.333,0.333 -0.667,0.667 -1,1c-0.483,-0.948 -0.649,-1.948 -0.5,-3c-1.373,0.157 -2.707,-0.01 -4,-0.5c0.734,-2.093 0.067,-2.593 -2,-1.5c-8.661,-9.144 -18.661,-16.644 -30,-22.5c-14.088,-6.918 -28.754,-12.252 -44,-16c-46.023,-10.004 -92.357,-18.337 -139,-25c-45.557,-9.235 -91.223,-17.735 -137,-25.5c0.659,11.704 -3.674,21.037 -13,28c-0.333,-0.167 -0.667,-0.333 -1,-0.5c7.82,-6.759 10.653,-15.259 8.5,-25.5c-3.533,-12.841 -12.033,-18.675 -25.5,-17.5c-9.106,2.593 -12.44,8.427 -10,17.5c2.484,-1.983 4.817,-4.15 7,-6.5c13.879,-1.117 20.046,5.383 18.5,19.5c-3.131,4.133 -6.631,7.966 -10.5,11.5c19.057,9.276 29.89,24.442 32.5,45.5c-8.242,-13.863 -20.075,-23.03 -35.5,-27.5c-3.333,-0.667 -6.667,-0.667 -10,0c23.29,3.622 37.124,17.122 41.5,40.5c2.231,13.798 0.064,26.798 -6.5,39c-0.667,-3.333 -1.333,-6.667 -2,-10c-2.548,-13.537 -9.215,-24.537 -20,-33c-2.738,-3.266 -6.071,-5.433 -10,-6.5c3.165,2.335 6.165,4.835 9,7.5c16.148,18.064 19.481,38.397 10,61c-0.667,-2.667 -1.333,-5.333 -2,-8c-2.85,-14.684 -10.85,-25.684 -24,-33c-2.417,-2.72 -5.417,-4.72 -9,-6c-1.196,0.346 -1.196,0.846 0,1.5c2.559,1.777 5.226,3.277 8,4.5c6.419,5.599 11.585,12.266 15.5,20c2.924,9.326 1.591,17.993 -4,26c-9.967,9.93 -17.967,21.263 -24,34c-2.128,5.847 -3.628,11.847 -4.5,18c-3.155,-12.989 -9.821,-23.823 -20,-32.5c-6.571,-4.115 -13.238,-7.948 -20,-11.5c5.185,-4.351 9.851,-9.184 14,-14.5c15.601,-1.451 25.434,5.383 29.5,20.5c-1.016,-13.361 -8.182,-21.527 -21.5,-24.5c-3.333,-0.667 -6.667,-0.667 -10,0c-5.293,7.627 -11.626,14.294 -19,20c-6.786,4.03 -14.12,5.863 -22,5.5c0.285,1.788 -0.048,3.455 -1,5c-9.718,-5.862 -18.7184,-12.696 -27,-20.5c-2.1705,-1.586 -4.5038,-2.92 -7,-4c-1.1956,-0.654 -1.1956,-1.154 0,-1.5c8.1566,3.579 15.49,8.412 22,14.5c3.471,2.072 7.138,3.572 11,4.5c0,-1.333 0,-2.667 0,-4c8.836,0.223 16.503,-2.611 23,-8.5c11.361,-11.695 19.861,-25.195 25.5,-40.5c-0.754,-8.288 -1.088,-16.621 -1,-25c9.798,-7.136 17.465,-16.136 23,-27c4.12,-18.024 -0.38,-33.524 -13.5,-46.5c-3.498,-1.967 -6.832,-1.633 -10,1c-1.671,3.9 -4.338,6.733 -8,8.5c-4.171,-1.002 -8.171,-2.502 -12,-4.5c-9.51,-2.577 -18.677,-1.743 -27.5,2.5c-4.261,-3.154 -8.928,-3.82 -14,-2c-5.8022,-2.207 -11.6356,-2.374 -17.5,-0.5c-2.1238,1.122 -3.9571,2.622 -5.5,4.5c1.8926,-7.13 5.0593,-13.796 9.5,-20c2.3822,-1.571 5.0488,-2.404 8,-2.5c-3.5822,-0.595 -3.9155,-1.929 -1,-4c5.102,-2.343 10.436,-3.01 16,-2c8.868,4.726 9.202,4.059 1,-2c-3.333,-1 -6.667,-2 -10,-3c9.229,-4.136 18.562,-4.47 28,-1c1.5,1.5 3,3 4.5,4.5c0.492,-1.049 0.326,-2.049 -0.5,-3c-7.556,-6.222 -16.223,-8.389 -26,-6.5c-3.296,0.457 -6.463,1.291 -9.5,2.5c-0.8785,-4.787 -0.5452,-9.453 1,-14c16.886,-19.861 38.053,-32.695 63.5,-38.5c-9.423,8.104 -16.589,17.937 -21.5,29.5c-0.667,1 -0.667,2 0,3c7.292,-14.747 18.459,-25.58 33.5,-32.5c10.856,-3.4443 21.523,-3.2776 32,0.5z" fill="#f9f9f9"/>
  </g>
  <g id="svg_13">
   <path id="svg_14" d="m198.5,103.5c3.125,-0.979 6.458,-1.313 10,-1c1.808,-0.009 3.475,0.491 5,1.5c-4.94,-0.326 -9.94,-0.492 -15,-0.5z" fill="#f6f6f6"/>
  </g>
  <g id="svg_15">
   <path id="svg_16" d="m217.5,104.5c15.969,9.794 30.969,20.961 45,33.5c4.052,1.686 7.719,3.852 11,6.5c4.814,3.908 9.814,7.575 15,11c8.2,7.021 16.867,13.521 26,19.5c7.292,1.492 14.625,2.659 22,3.5c13.005,3.727 26.338,6.393 40,8c6.703,2.17 13.703,3.17 21,3c0,-2 0,-4 0,-6c1.052,-0.149 2.052,0.017 3,0.5c-1.918,1.77 -2.418,3.937 -1.5,6.5c0.333,-0.667 0.667,-1.333 1,-2c4.476,1.915 8.642,4.248 12.5,7c-33.509,-5.192 -66.843,-11.359 -100,-18.5c-12.667,-9.667 -25.333,-19.333 -38,-29c-7.657,-4.892 -15.657,-9.225 -24,-13c-10.733,-3.919 -19.4,-1.419 -26,7.5c-0.009,-1.808 0.491,-3.475 1.5,-5c6.665,-7.332 14.832,-9.832 24.5,-7.5c-3.354,-2.032 -6.687,-4.032 -10,-6c-19.984,-7.246 -35.818,-2.079 -47.5,15.5c3.124,-8.487 8.624,-15.32 16.5,-20.5c7.595,-4.732 15.595,-5.732 24,-3c-3.161,-1.413 -6.161,-3.08 -9,-5c-3.491,-0.738 -6.825,-1.571 -10,-2.5c1,0 2,0 3,0c0,-1.333 0,-2.667 0,-4z" fill="#f6f6f6"/>
  </g>
  <g id="svg_17">
   <path id="svg_18" d="m283.5,65.5c2.403,-0.052 4.736,0.2814 7,1c2.949,1.9608 6.282,3.1274 10,3.5c-9.251,0.1771 -18.585,0.3437 -28,0.5c0,1.3333 0,2.6667 0,4c-5.314,-0.6593 -10.647,-1.326 -16,-2c-10.654,1.3504 -21.32,2.5171 -32,3.5c2.254,1.651 4.588,1.8177 7,0.5c1.196,0.3457 1.196,0.8457 0,1.5c-3.333,0.3333 -6.667,0.6667 -10,1c-0.667,1 -1.333,2 -2,3c-3.95,1.0114 -4.783,3.5114 -2.5,7.5c2.209,2.2802 4.709,4.1136 7.5,5.5c-0.667,0.6667 -1.333,1.3333 -2,2c4.33,1.1638 8.663,2.3305 13,3.5c3.178,1.684 4.845,4.351 5,8c1.808,-0.009 3.475,0.491 5,1.5c-1.154,0.914 -0.987,1.747 0.5,2.5c1.418,-1.863 3.251,-2.363 5.5,-1.5c0.833,2.167 2.333,3.667 4.5,4.5c0.483,0.948 0.649,1.948 0.5,3c1.052,-0.149 2.052,0.017 3,0.5c-1.231,1.183 -1.231,2.349 0,3.5c1.571,0.809 3.238,1.143 5,1c0,1 0,2 0,3c3.682,-0.165 7.348,0.001 11,0.5c0.833,2.167 2.333,3.667 4.5,4.5c0.483,0.948 0.649,1.948 0.5,3c1.052,-0.149 2.052,0.017 3,0.5c0.833,2.167 2.333,3.667 4.5,4.5c0.483,0.948 0.649,1.948 0.5,3c2.667,0 5.333,0 8,0c-0.149,1.052 0.017,2.052 0.5,3c4.901,2.56 5.068,4.56 0.5,6c0.333,0.333 0.667,0.667 1,1c1.795,-0.765 3.628,-1.432 5.5,-2c2.301,1.992 4.634,3.992 7,6c0.617,0.949 0.451,1.782 -0.5,2.5c1.626,-0.195 3.293,-0.195 5,0c0.833,2.167 2.333,3.667 4.5,4.5c0.483,0.948 0.649,1.948 0.5,3c2.865,-0.445 5.365,0.222 7.5,2c3.224,-2.759 6.058,-2.259 8.5,1.5c5.298,1.159 10.631,1.993 16,2.5c-0.14,1.624 0.527,2.79 2,3.5c-0.667,0.167 -1.333,0.333 -2,0.5c-4.023,-1.018 -8.023,-2.018 -12,-3c-1.333,0.333 -2.667,0.667 -4,1c0.333,0.333 0.667,0.667 1,1c10.426,1.485 20.76,3.485 31,6c-1.333,0.333 -2.667,0.667 -4,1c-9.387,-1.353 -18.72,-2.686 -28,-4c-7.375,-0.841 -14.708,-2.008 -22,-3.5c-9.133,-5.979 -17.8,-12.479 -26,-19.5c-2.321,-3.129 -4.988,-5.962 -8,-8.5c0.667,-0.333 1.333,-0.667 2,-1c-3.044,-0.363 -6.044,-0.863 -9,-1.5c-3.281,-2.648 -6.948,-4.814 -11,-6.5c-14.031,-12.539 -29.031,-23.706 -45,-33.5c-1.21,-0.432 -2.21,-1.099 -3,-2c-1.226,-2.376 -3.226,-3.8764 -6,-4.5c-7.62,-1.4378 -14.954,-2.9378 -22,-4.5c4.781,-5.2266 10.448,-9.2266 17,-12c2.05,-0.4612 4.05,-1.1279 6,-2c0.586,0.2093 1.086,0.5426 1.5,1c2.701,-3.1769 6.535,-5.6769 11.5,-7.5c4.796,0.2683 8.796,-1.2317 12,-4.5c5.824,0.2233 11.49,-0.61 17,-2.5c10.661,-0.4998 21.328,-0.6665 32,-0.5z" fill="#dd0323"/>
  </g>
  <g id="svg_19">
   <path id="svg_20" d="m224.5,142.5c-0.023,2.427 -0.523,4.76 -1.5,7c-0.826,-2.712 -0.326,-5.045 1.5,-7z" fill="#f6f6f6"/>
  </g>
  <g id="svg_21">
   <path id="svg_22" d="m273.5,144.5c2.956,0.637 5.956,1.137 9,1.5c-0.667,0.333 -1.333,0.667 -2,1c3.012,2.538 5.679,5.371 8,8.5c-5.186,-3.425 -10.186,-7.092 -15,-11z" fill="#b81728"/>
  </g>
  <g id="svg_23">
   <path id="svg_24" d="m220.5,173.5c5.455,1.56 7.955,5.227 7.5,11c-2.628,1.626 -4.961,3.626 -7,6c-0.424,-4.525 -2.59,-7.858 -6.5,-10c2.023,-2.353 4.023,-4.686 6,-7z" fill="#f6f6f6"/>
  </g>
  <g id="svg_25">
   <path id="svg_26" d="m391.5,158.5c3.39,7.895 5.39,16.228 6,25c0,2 0,4 0,6c-7.297,0.17 -14.297,-0.83 -21,-3c5.378,-0.102 10.545,-0.102 15.5,0c1.123,-4.087 1.956,-8.254 2.5,-12.5c-0.444,-1.762 -0.944,-1.595 -1.5,0.5c-0.391,-5.354 -0.891,-10.688 -1.5,-16z" fill="#c80d2a"/>
  </g>
  <g id="svg_27">
   <path id="svg_28" d="m87.5,195.5c5.845,-0.349 11.5117,0.484 17,2.5c2.765,2.966 2.432,5.633 -1,8c-5.1557,1.962 -10.489,2.795 -16,2.5c0,-4.333 0,-8.667 0,-13z" fill="#f1f1f1"/>
  </g>
  <g id="svg_29">
   <path id="svg_30" d="m127.5,195.5c6.178,-0.393 12.178,0.44 18,2.5c2.287,1.427 2.62,3.261 1,5.5c-5.609,4.06 -11.942,5.727 -19,5c0,-4.333 0,-8.667 0,-13z" fill="#f5f5f5"/>
  </g>
  <g id="svg_31">
   <path id="svg_32" d="m78.5,276.5c3.726,0.323 7.3927,-0.011 11,-1c-4.0377,-13.413 -0.371,-23.913 11,-31.5c1.845,-1.128 3.845,-1.628 6,-1.5c0.031,4.097 -1.969,6.597 -6,7.5c7.887,1.475 13.387,-1.358 16.5,-8.5c-1,-9.583 -6.167,-12.749 -15.5,-9.5c-3.6667,2.333 -7.3333,4.667 -11,7c-4.0052,1.098 -7.5052,0.265 -10.5,-2.5c-0.4918,4.86 0.8416,9.194 4,13c0.4998,8.66 0.6664,17.327 0.5,26c-2,0 -4,0 -6,0c-1.4008,-3.681 -2.0675,-7.514 -2,-11.5c0.627,-4.836 0.7936,-9.669 0.5,-14.5c-3.7262,-5.985 -4.3929,-12.318 -2,-19c4.695,-5.595 8.8616,-5.262 12.5,1c11.2707,-9.259 22.437,-9.259 33.5,0c3.511,6.764 3.011,13.264 -1.5,19.5c-7.298,3.65 -14.298,7.816 -21,12.5c-4.8499,9.551 -2.1832,15.718 8,18.5c16.224,6.529 32.891,8.196 50,5c-15.393,8.934 -31.393,9.934 -48,3c-5.14,-2.906 -10.4731,-5.24 -16,-7c-5.7743,-1.538 -10.7743,-0.371 -15,3.5c-2,-1.333 -4,-2.667 -6,-4c1.8068,-2.719 4.1402,-4.719 7,-6z" fill="#f0f0f0"/>
  </g>
  <g fill-opacity="0" id="svg_33">
   <path id="svg_34" d="m78.5,276.5c0,-0.333 0,-0.667 0,-1c2,0 4,0 6,0c0.1664,-8.673 -0.0002,-17.34 -0.5,-26c-3.1584,-3.806 -4.4918,-8.14 -4,-13c2.9948,2.765 6.4948,3.598 10.5,2.5c3.6667,-2.333 7.3333,-4.667 11,-7c9.333,-3.249 14.5,-0.083 15.5,9.5c-3.113,7.142 -8.613,9.975 -16.5,8.5c4.031,-0.903 6.031,-3.403 6,-7.5c-2.155,-0.128 -4.155,0.372 -6,1.5c-11.371,7.587 -15.0377,18.087 -11,31.5c-3.6073,0.989 -7.274,1.323 -11,1z" fill="#000000"/>
  </g>
  <g id="svg_35">
   <path id="svg_36" d="m223.5,253.5c-0.667,0 -1,0.333 -1,1c-2.835,-2.665 -5.835,-5.165 -9,-7.5c3.929,1.067 7.262,3.234 10,6.5z" fill="#f6f6f6"/>
  </g>
  <g id="svg_37">
   <path id="svg_38" d="m206.5,274.5c-0.333,0 -0.667,0 -1,0c-2.774,-1.223 -5.441,-2.723 -8,-4.5c-1.196,-0.654 -1.196,-1.154 0,-1.5c3.583,1.28 6.583,3.28 9,6z" fill="#f6f6f6"/>
  </g>
  <g id="svg_39">
   <path id="svg_40" d="m296.5,272.5c0.397,-1.025 1.063,-1.192 2,-0.5c9.274,8.264 12.441,18.43 9.5,30.5c-2,6 -4,12 -6,18c-0.667,3.667 -0.667,7.333 0,11c11.426,24.019 23.259,47.852 35.5,71.5c-1.496,1.331 -2.829,2.831 -4,4.5c36.442,5.49 72.442,3.49 108,-6c0.333,0.333 0.667,0.667 1,1c-1.207,3.494 -2.874,6.66 -5,9.5c-29.114,5.179 -58.447,6.846 -88,5c-6.609,-0.357 -13.109,-1.19 -19.5,-2.5c2.23,24.662 1.897,49.328 -1,74c-6.439,19.512 -8.772,39.512 -7,60c4.056,8.283 9.223,15.783 15.5,22.5c-2.667,0.333 -5.333,0.667 -8,1c-0.457,0.414 -0.791,0.914 -1,1.5c2.243,0.974 4.576,1.308 7,1c-0.157,1.373 0.01,2.707 0.5,4c8.458,0.922 12.125,5.588 11,14c-1.752,3.882 -4.585,4.882 -8.5,3c-1.005,-4.183 -2.505,-8.183 -4.5,-12c-4.965,-3.24 -9.465,-7.074 -13.5,-11.5c-2.667,-0.667 -5.333,-0.667 -8,0c-0.857,0.689 -1.523,1.522 -2,2.5c2.502,0.121 5.168,0.288 8,0.5c2.846,0.879 3.513,2.546 2,5c10.492,1.038 14.159,6.371 11,16c-2.667,0.667 -5.333,0.667 -8,0c-3.246,-5.587 -6.913,-10.92 -11,-16c-3.482,-3.323 -7.649,-5.156 -12.5,-5.5c-1.971,-0.032 -3.471,0.802 -4.5,2.5c8.631,0.567 15.465,4.4 20.5,11.5c1.167,5.201 -0.999,7.534 -6.5,7c-5.094,-1.195 -10.094,-2.862 -15,-5c-11.867,4.94 -16.701,1.273 -14.5,-11c0.465,-1.431 1.299,-2.597 2.5,-3.5c2.077,-0.192 4.077,-0.692 6,-1.5c-5.009,-3.203 -9.176,-2.203 -12.5,3c-3.128,7.089 -1.628,12.922 4.5,17.5c-9.571,1.096 -13.737,-3.07 -12.5,-12.5c1.667,-5.333 3.333,-10.667 5,-16c0.667,-4.667 0.667,-9.333 0,-14c-14.054,-39.82 -28.72,-79.487 -44,-119c-0.333,-12 -0.667,-24 -1,-36c-13.561,-18.021 -19.895,-38.354 -19,-61c1.667,-2 3.333,-4 5,-6c-0.041,13.755 2.292,27.088 7,40c3.758,7.188 8.258,13.855 13.5,20c0.833,13.321 1.333,26.654 1.5,40c14.591,38.938 29.091,77.938 43.5,117c11.093,-4.485 22.426,-5.152 34,-2c-2.127,-18.311 -0.627,-36.311 4.5,-54c5.127,-27.632 4.627,-55.132 -1.5,-82.5c3.116,-3.725 6.116,-7.558 9,-11.5c-11.181,-21.399 -21.681,-43.066 -31.5,-65c-0.667,-3.667 -0.667,-7.333 0,-11c2.667,-7.333 5.333,-14.667 8,-22c1.032,-7.831 0.365,-15.498 -2,-23c-1.405,-1.231 -2.571,-2.564 -3.5,-4z" fill="#f5f5f5"/>
  </g>
  <g id="svg_41">
   <path id="svg_42" d="m243.5,286.5c0.667,3.333 1.333,6.667 2,10c-0.487,0.973 -0.987,1.973 -1.5,3c-0.499,-4.321 -0.666,-8.654 -0.5,-13z" fill="#f6f6f6"/>
  </g>
  <g id="svg_43">
   <path id="svg_44" d="m133.5,300.5c1.765,-0.961 3.765,-1.295 6,-1c0.237,1.291 -0.096,2.291 -1,3c-1.052,-1.756 -2.719,-2.423 -5,-2z" fill="#f6f6f6"/>
  </g>
  <g id="svg_45">
   <path id="svg_46" d="m133.5,300.5c2.281,-0.423 3.948,0.244 5,2c-2.801,1.235 -5.468,2.735 -8,4.5c-14.651,-0.47 -29.318,-0.47 -44,0c-2.3884,0.303 -4.5551,1.137 -6.5,2.5c-0.4974,-2.646 -0.6641,-5.313 -0.5,-8c18.0234,0.265 36.023,-0.069 54,-1z" fill="#e7e6e7"/>
  </g>
  <g id="svg_47">
   <path id="svg_48" d="m230.5,307.5c0.667,2.667 1.333,5.333 2,8c-0.487,0.973 -0.987,1.973 -1.5,3c-0.499,-3.652 -0.665,-7.318 -0.5,-11z" fill="#f6f6f6"/>
  </g>
  <g id="svg_49">
   <path id="svg_50" d="m448.5,414.5c-1.427,-1.648 -2.26,-3.648 -2.5,-6c-0.2,1.82 -1.034,3.153 -2.5,4c13.525,-45.383 34.192,-87.049 62,-125c-24.882,39.16 -43.882,81.493 -57,127z" fill="#e6e6e6"/>
  </g>
  <g id="svg_51">
   <path id="svg_52" d="m610.5,267.5c1.636,1.249 2.803,2.916 3.5,5c12.875,31.043 18.541,63.377 17,97c-1.976,47.902 -14.31,92.902 -37,135c-2.615,4.283 -5.615,8.283 -9,12c-0.921,6.528 -2.588,12.862 -5,19c-2.832,5.701 -6.498,6.367 -11,2c-1.15,-2.254 -1.484,-4.587 -1,-7c2.402,2.758 4.402,2.425 6,-1c1.204,-6.253 1.871,-12.586 2,-19c7.681,-10.027 14.347,-20.694 20,-32c11.563,-27.25 19.23,-55.584 23,-85c0.667,-11.667 0.667,-23.333 0,-35c-0.189,-4.846 -1.189,-9.512 -3,-14c-0.244,10.032 -0.91,20.032 -2,30c-9.879,35.321 -24.212,68.655 -43,100c-1.249,9.829 -3.249,19.496 -6,29c-2.95,4.618 -6.284,8.952 -10,13c-1.667,3.333 -3.333,6.667 -5,10c-1.893,15.202 0.107,29.868 6,44c1.308,2.141 2.808,4.141 4.5,6c-2.433,1.554 -5.1,2.22 -8,2c-2.384,8.219 -7.717,13.719 -16,16.5c-4.321,1.418 -8.654,1.585 -13,0.5c1.725,-2.457 2.225,-5.123 1.5,-8c-0.885,2.5 -2.052,4.833 -3.5,7c-1.109,1.09 -2.109,1.09 -3,0c0.826,-0.951 0.992,-1.951 0.5,-3c-5.465,4.483 -11.632,7.483 -18.5,9c-7.603,2.082 -10.436,-0.585 -8.5,-8c3.633,-1.134 6.133,-3.467 7.5,-7c2.609,-0.73 5.276,-1.23 8,-1.5c-5.79,-3.872 -10.457,-2.705 -14,3.5c-2.101,-6.384 -6.434,-8.551 -13,-6.5c-1.897,3.303 -3.564,3.136 -5,-0.5c-4.039,-1.783 -7.539,-1.116 -10.5,2c-1.351,-1.519 -2.851,-2.852 -4.5,-4c5.93,-1.435 11.93,-2.601 18,-3.5c3.024,-1.513 5.691,-3.513 8,-6c-10.713,1.223 -21.379,3.056 -32,5.5c0.17,1.322 -0.163,2.489 -1,3.5c-2,0.333 -4,0.667 -6,1c1.074,0.739 1.741,1.739 2,3c-3.473,4.583 -5.473,9.75 -6,15.5c-5.536,3.501 -8.203,1.835 -8,-5c0.467,-5.762 3.133,-10.262 8,-13.5c6.168,-2.916 11.835,-6.582 17,-11c8.485,-0.705 16.818,-2.205 25,-4.5c-2.594,-7.842 -6.761,-14.842 -12.5,-21c-25.773,-39.599 -35.606,-82.932 -29.5,-130c1.466,-0.847 2.3,-2.18 2.5,-4c0.24,2.352 1.073,4.352 2.5,6c-4.141,50.805 9.359,96.138 40.5,136c1.838,3.676 3.671,7.342 5.5,11c10.065,-4.067 20.065,-3.9 30,0.5c3.712,5.379 8.379,9.713 14,13c2.269,0.758 4.436,0.591 6.5,-0.5c0.935,-2.409 1.435,-4.909 1.5,-7.5c-3.076,-16.79 -3.576,-33.623 -1.5,-50.5c3.846,-7.848 8.513,-15.181 14,-22c2.623,-7.78 3.956,-15.78 4,-24c20.113,-32.333 34.78,-67 44,-104c0.333,-16.008 0.333,-32.008 0,-48c2.004,-6.181 5.671,-7.848 11,-5c-1.916,-18.835 -8.083,-36.169 -18.5,-52c2.067,-1.093 2.734,-0.593 2,1.5c1.293,0.49 2.627,0.657 4,0.5c-0.149,1.052 0.017,2.052 0.5,3c0.333,-0.333 0.667,-0.667 1,-1c0.71,1.473 1.876,2.14 3.5,2z" fill="#f4f4f4"/>
  </g>
  <g id="svg_53">
   <path id="svg_54" d="m197.5,574.5c-1.871,0.359 -3.371,1.359 -4.5,3c-2.368,4.399 -3.868,9.065 -4.5,14c-4.345,2.627 -9.012,3.46 -14,2.5c-1.386,-3.873 -1.22,-7.706 0.5,-11.5c2.312,-3.146 4.812,-6.146 7.5,-9c2.479,-1.173 4.979,-1.173 7.5,0c1.622,-0.454 2.788,-1.454 3.5,-3c-5.507,-3.07 -10.507,-2.404 -15,2c-1,-0.333 -1.667,-1 -2,-2c15.847,-4.513 29.014,-13.179 39.5,-26c0.952,-31.096 -0.381,-62.096 -4,-93c-1.445,-13.208 -5.445,-25.541 -12,-37c-0.958,-20.662 -1.292,-41.329 -1,-62c1.497,-3.665 3.497,-6.998 6,-10c-0.644,22.921 -0.644,45.921 0,69c5.989,10.94 9.989,22.607 12,35c3.992,30.535 5.825,61.201 5.5,92c9.217,-1.183 17.883,0.317 26,4.5c4.193,4.678 6.026,10.178 5.5,16.5c5.186,-12.859 5.852,-25.859 2,-39c3.054,3.442 5.054,7.442 6,12c0.667,6 0.667,12 0,18c-3.973,10.557 -7.64,21.224 -11,32c-0.55,-2.763 -1.383,-5.43 -2.5,-8c0.862,-2.01 1.362,-4.01 1.5,-6c-1.333,0.667 -2.333,1.667 -3,3c3.114,8.34 0.614,14.174 -7.5,17.5c-5.828,2.227 -11.828,2.893 -18,2c1.896,-1.808 2.396,-3.975 1.5,-6.5c-0.467,4.998 -2.967,6.998 -7.5,6c2.536,-5.1 1.869,-5.267 -2,-0.5c-3.79,0.23 -7.124,1.563 -10,4c-9.263,1.698 -12.763,-2.135 -10.5,-11.5c1.259,-2.856 2.759,-5.523 4.5,-8z" fill="#f5f5f5"/>
  </g>
  <g id="svg_55">
   <path id="svg_56" d="m208.5,573.5c-0.039,-1.256 0.461,-2.256 1.5,-3c0.585,1.498 0.085,2.498 -1.5,3z" fill="#5f5f5f"/>
  </g>
  <g id="svg_57">
   <path id="svg_58" d="m165.5,574.5c-3.35,4.703 -5.35,10.037 -6,16c-1.723,1.307 -3.557,1.307 -5.5,0c-0.238,-4.348 0.095,-8.681 1,-13c2.407,-3.953 5.907,-5.953 10.5,-6c0,1 0,2 0,3z" fill="#ececec"/>
  </g>
  <g id="svg_59">
   <path id="svg_60" d="m161.5,590.5c0.31,-5.595 1.643,-10.928 4,-16c2.054,-1.109 4.221,-2.109 6.5,-3c2.214,0.346 3.714,1.512 4.5,3.5c-3.702,5.606 -5.702,11.772 -6,18.5c-2.687,0.164 -5.354,-0.003 -8,-0.5c-0.752,-0.671 -1.086,-1.504 -1,-2.5z" fill="#f6f6f6"/>
  </g>
  <g id="svg_61">
   <path id="svg_62" d="m500.5,600.5c-3.493,2.107 -6.993,2.107 -10.5,0c-2.354,0.392 -4.854,0.392 -7.5,0c4.763,-2.315 7.763,-6.148 9,-11.5c-0.476,-3.796 -2.642,-5.296 -6.5,-4.5c-4.532,2.111 -8.865,4.778 -13,8c-2.109,3.155 -1.942,6.155 0.5,9c-2.456,-0.825 -5.123,-0.825 -8,0c2.235,-2.517 3.735,-5.517 4.5,-9c2.35,-2.183 4.517,-4.516 6.5,-7c-1.941,-2.834 -4.607,-3.668 -8,-2.5c-5.471,4.267 -8.471,9.767 -9,16.5c-0.472,-2.031 -1.472,-3.698 -3,-5c1.786,-3.62 3.786,-7.12 6,-10.5c-0.585,-2.134 -1.918,-3.634 -4,-4.5c-6.048,3.712 -9.714,9.045 -11,16c-1.278,0.282 -2.278,0.949 -3,2c0.527,-5.75 2.527,-10.917 6,-15.5c-0.259,-1.261 -0.926,-2.261 -2,-3c2,-0.333 4,-0.667 6,-1c0.837,-1.011 1.17,-2.178 1,-3.5c10.621,-2.444 21.287,-4.277 32,-5.5c-2.309,2.487 -4.976,4.487 -8,6c-6.07,0.899 -12.07,2.065 -18,3.5c1.649,1.148 3.149,2.481 4.5,4c2.961,-3.116 6.461,-3.783 10.5,-2c1.436,3.636 3.103,3.803 5,0.5c6.566,-2.051 10.899,0.116 13,6.5c3.543,-6.205 8.21,-7.372 14,-3.5c-2.724,0.27 -5.391,0.77 -8,1.5c-1.367,3.533 -3.867,5.866 -7.5,7c-1.936,7.415 0.897,10.082 8.5,8z" fill="#f6f6f6"/>
  </g>
  <g id="svg_63">
   <path id="svg_64" d="m197.5,574.5c3.462,-0.982 7.129,-1.315 11,-1c-0.634,1.447 -1.801,2.113 -3.5,2c-2.462,-0.659 -4.962,-0.993 -7.5,-1z" fill="#f6f6f6"/>
  </g>
  <g id="svg_65">
   <path id="svg_66" d="m338.5,572.5c3.746,0.127 5.079,1.794 4,5c-2.111,-1.105 -3.445,-2.771 -4,-5z" fill="#deddde"/>
  </g>
  <g id="svg_67">
   <path id="svg_68" d="m353.5,576.5c10.92,-1.579 15.753,3.087 14.5,14c-2.196,2.625 -5.03,3.625 -8.5,3c0.164,-2.687 -0.003,-5.354 -0.5,-8c-0.383,-0.556 -0.883,-0.889 -1.5,-1c-1.784,-2.448 -3.118,-5.115 -4,-8z" fill="#efefef"/>
  </g>
  <g id="svg_69">
   <path id="svg_70" d="m352.5,578.5c0.919,2.589 2.586,4.589 5,6c2.528,6.754 0.195,10.088 -7,10c0.163,-2.357 -0.003,-4.69 -0.5,-7c-1.537,-3.729 -3.037,-7.395 -4.5,-11c2.688,-0.334 5.021,0.332 7,2z" fill="#f0f0f0"/>
  </g>
  <g id="svg_71">
   <path id="svg_72" d="m353.5,576.5c0.882,2.885 2.216,5.552 4,8c-2.414,-1.411 -4.081,-3.411 -5,-6c-0.172,-0.992 0.162,-1.658 1,-2z" fill="#f6f6f6"/>
  </g>
  <g id="svg_73">
   <path id="svg_74" d="m455.5,594.5c-2.18,6.288 -5.18,6.621 -9,1c1.286,-6.955 4.952,-12.288 11,-16c2.082,0.866 3.415,2.366 4,4.5c-2.214,3.38 -4.214,6.88 -6,10.5z" fill="#f1f1f1"/>
  </g>
  <g id="svg_75">
   <path id="svg_76" d="m464.5,601.5c-2.358,0.247 -4.358,-0.419 -6,-2c0.529,-6.733 3.529,-12.233 9,-16.5c3.393,-1.168 6.059,-0.334 8,2.5c-1.983,2.484 -4.15,4.817 -6.5,7c-0.765,3.483 -2.265,6.483 -4.5,9z" fill="#eeeeee"/>
  </g>
  <g id="svg_77">
   <path id="svg_78" d="m482.5,600.5c-3.264,0.824 -6.598,1.158 -10,1c-2.442,-2.845 -2.609,-5.845 -0.5,-9c4.135,-3.222 8.468,-5.889 13,-8c3.858,-0.796 6.024,0.704 6.5,4.5c-1.237,5.352 -4.237,9.185 -9,11.5z" fill="#f6f6f6"/>
  </g>
  <g id="svg_79">
   <path id="svg_80" d="m165.5,574.5c-2.357,5.072 -3.69,10.405 -4,16c-0.667,0 -1.333,0 -2,0c0.65,-5.963 2.65,-11.297 6,-16z" fill="#f6f6f6"/>
  </g>
 </g>
</svg>