<svg width="10" height="10" viewBox="0 0 10 10" fill="none" xmlns="http://www.w3.org/2000/svg">
<path d="M9.77294 1.28771C10.0658 0.994814 10.0658 0.51994 9.77294 0.227047C9.48004 -0.0658466 9.00517 -0.0658466 8.71228 0.227047L9.77294 1.28771ZM0.226994 8.71233C-0.0658991 9.00522 -0.0658991 9.48009 0.226994 9.77299C0.519887 10.0659 0.994761 10.0659 1.28765 9.77299L0.226994 8.71233ZM8.71228 9.77294C9.00517 10.0658 9.48004 10.0658 9.77294 9.77294C10.0658 9.48004 10.0658 9.00517 9.77294 8.71228L8.71228 9.77294ZM1.28765 0.226994C0.994761 -0.0658991 0.519887 -0.0658991 0.226994 0.226994C-0.0658991 0.519887 -0.0658991 0.994761 0.226994 1.28765L1.28765 0.226994ZM8.71228 0.227047L0.226994 8.71233L1.28765 9.77299L9.77294 1.28771L8.71228 0.227047ZM9.77294 8.71228L1.28765 0.226994L0.226994 1.28765L8.71228 9.77294L9.77294 8.71228Z" fill="white"/>
</svg>
