<svg width="16" height="12" viewBox="0 0 16 12" fill="none" xmlns="http://www.w3.org/2000/svg">
<path d="M1.46852 6.41435C1.14507 6.15559 0.673106 6.20803 0.414348 6.53148C0.155591 6.85493 0.208032 7.32689 0.531479 7.58565L1.46852 6.41435ZM4.52642 9.82114L4.0579 10.4068L4.0579 10.4068L4.52642 9.82114ZM7.2624 9.59733L6.70493 9.09561L6.70493 9.09561L7.2624 9.59733ZM15.5575 1.50172C15.8346 1.19384 15.8096 0.719624 15.5017 0.442529C15.1938 0.165435 14.7196 0.190394 14.4425 0.498276L15.5575 1.50172ZM0.531479 7.58565L4.0579 10.4068L4.99494 9.23549L1.46852 6.41435L0.531479 7.58565ZM7.81987 10.0991L15.5575 1.50172L14.4425 0.498276L6.70493 9.09561L7.81987 10.0991ZM4.0579 10.4068C5.19546 11.3168 6.84534 11.1819 7.81987 10.0991L6.70493 9.09561C6.26196 9.5878 5.51202 9.64914 4.99494 9.23549L4.0579 10.4068Z" fill="white"/>
</svg>
